<?xml version="1.0" standalone="no"?>
<!DOCTYPE svg PUBLIC "-//W3C//DTD SVG 20010904//EN"
 "http://www.w3.org/TR/2001/REC-SVG-20010904/DTD/svg10.dtd">
<svg version="1.0" xmlns="http://www.w3.org/2000/svg"
 width="16.000000pt" height="16.000000pt" viewBox="0 0 16.000000 16.000000"
 preserveAspectRatio="xMidYMid meet">
<metadata>
Created by potrace 1.11, written by Peter Selinger 2001-2013
</metadata>
<g transform="translate(0.000000,16.000000) scale(0.001021,-0.001021)"
fill="#000000" stroke="none">
<path d="M5509 10595 c-499 -78 -936 -373 -1194 -807 -184 -309 -280 -753
-246 -1133 43 -469 219 -838 519 -1088 217 -181 490 -308 760 -352 141 -24
454 -16 587 14 181 40 317 97 442 183 88 60 209 176 272 261 24 31 47 57 51
57 15 0 -35 -381 -71 -544 -109 -493 -371 -848 -679 -920 -86 -21 -264 -21
-343 0 -208 54 -388 240 -468 486 l-32 98 -479 0 c-401 0 -478 -2 -478 -14 0
-30 33 -185 56 -269 126 -438 424 -779 833 -950 118 -49 321 -101 461 -117
138 -16 494 -8 610 13 188 36 375 103 507 181 515 310 849 831 997 1558 60
295 80 503 79 833 -2 856 -177 1493 -531 1928 -131 161 -354 342 -531 431
-141 71 -329 126 -520 151 -134 18 -485 18 -602 0z m503 -834 c304 -78 529
-355 588 -723 20 -123 8 -351 -24 -473 -66 -252 -203 -433 -401 -531 -112 -55
-198 -74 -345 -74 -184 0 -300 38 -433 140 -299 231 -411 786 -243 1199 75
184 237 361 394 428 131 57 321 70 464 34z"/>
<path d="M1941 10418 c-62 -275 -198 -482 -422 -641 -87 -62 -251 -139 -364
-171 -114 -33 -321 -63 -497 -72 l-138 -6 0 -374 0 -374 620 0 620 0 0 -1600
0 -1600 505 0 505 0 0 2470 0 2470 -403 0 -403 0 -23 -102z"/>
<path d="M13691 10418 c-62 -275 -198 -482 -422 -641 -87 -62 -251 -139 -364
-171 -114 -33 -321 -63 -497 -72 l-138 -6 0 -374 0 -374 620 0 620 0 0 -1600
0 -1600 505 0 505 0 0 2470 0 2470 -403 0 -403 0 -23 -102z"/>
<path d="M8110 10045 l0 -465 1165 0 c641 0 1165 -3 1165 -6 0 -3 -35 -49 -78
-102 -563 -696 -1035 -1585 -1293 -2432 -132 -435 -233 -945 -264 -1340 -3
-41 -8 -85 -11 -97 l-4 -23 543 0 544 0 6 173 c33 879 341 2002 765 2792 225
418 437 709 716 984 l126 124 0 429 0 428 -1690 0 -1690 0 0 -465z"/>
</g>
</svg>
